<svg xmlns="http://www.w3.org/2000/svg" width="24" height="24" viewBox="0 0 24 24" fill="none" stroke="currentColor" stroke-width="1.5" stroke-linecap="round" stroke-linejoin="round">
  <path d="M12 4.5a2.5 2.5 0 0 0-4.96-.46 2.5 2.5 0 0 0-1.98 3 2.5 2.5 0 0 0 1.32 4.24"/>
  <path d="M12 4.5a2.5 2.5 0 0 1 4.96-.46 2.5 2.5 0 0 1 1.98 3 2.5 2.5 0 0 1-1.32 4.24"/>
  <path d="M15.5 16.5a2.5 2.5 0 0 1-2.15 3.95 2.5 2.5 0 0 1-2.7 0A2.5 2.5 0 0 1 8.5 16.5"/>
  <circle cx="12" cy="12" r="2"/>
  <path d="M12 10V7"/>
  <path d="m10.5 13.5-2 2"/>
  <path d="m13.5 13.5 2 2"/>
</svg>
